HIERARCHY
ROOT RootJoint
{
    OFFSET   0.000000   0.000000   0.000000
    CHANNELS 6 Xposition Yposition Zposition Xrotation Yrotation Zrotation
    JOINT pelvis_lowerback
    {
        OFFSET   0.000000   0.093605   0.000000
        CHANNELS 3 Xrotation Yrotation Zrotation
        JOINT lowerback_torso
        {
            OFFSET   0.000000   0.100000   0.000000
            CHANNELS 3 Xrotation Yrotation Zrotation
            JOINT torso_head
            {
                OFFSET   0.000000   0.282350   0.000000
                CHANNELS 3 Xrotation Yrotation Zrotation
                End Site
                {
                    OFFSET   0.000000   0.192650   0.000000
                }
            }
            JOINT rTorso_Clavicle
            {
                OFFSET  -0.001000   0.157500   0.000000
                CHANNELS 3 Xrotation Yrotation Zrotation
                JOINT rShoulder
                {
                    OFFSET  -0.117647   0.000000   0.000000
                    CHANNELS 3 Xrotation Yrotation Zrotation
                    JOINT rElbow
                    {
                        OFFSET  -0.245000   0.000000   0.000000
                        CHANNELS 3 Xrotation Yrotation Zrotation
                        JOINT rWrist
                        {
                            OFFSET  -0.240000   0.000000   0.000000
                            CHANNELS 3 Xrotation Yrotation Zrotation
                            End Site
                            {
                                OFFSET  -0.116353  -0.002500   0.000000
                            }
                        }
                    }
                }
            }
            JOINT lTorso_Clavicle
            {
                OFFSET   0.001000   0.157500   0.000000
                CHANNELS 3 Xrotation Yrotation Zrotation
                JOINT lShoulder
                {
                    OFFSET   0.117647   0.000000   0.000000
                    CHANNELS 3 Xrotation Yrotation Zrotation
                    JOINT lElbow
                    {
                        OFFSET   0.245000   0.000000   0.000000
                        CHANNELS 3 Xrotation Yrotation Zrotation
                        JOINT lWrist
                        {
                            OFFSET   0.240000   0.000000   0.000000
                            CHANNELS 3 Xrotation Yrotation Zrotation
                            End Site
                            {
                                OFFSET   0.116353  -0.002500   0.000000
                            }
                        }
                    }
                }
            }
        }
    }
    JOINT rHip
    {
        OFFSET  -0.100000  -0.051395   0.000000
        CHANNELS 3 Xrotation Yrotation Zrotation
        JOINT rKnee
        {
            OFFSET   0.000000  -0.410000   0.000000
            CHANNELS 3 Xrotation Yrotation Zrotation
            JOINT rAnkle
            {
                OFFSET   0.000000  -0.390000   0.000000
                CHANNELS 3 Xrotation Yrotation Zrotation
                JOINT rToeJoint
                {
                    OFFSET   0.000000  -0.050000   0.130000
                    CHANNELS 3 Xrotation Yrotation Zrotation
                    End Site
                    {
                        OFFSET  -0.010000   0.002000   0.060000
                    }
                }
            }
        }
    }
    JOINT lHip
    {
        OFFSET   0.100000  -0.051395   0.000000
        CHANNELS 3 Xrotation Yrotation Zrotation
        JOINT lKnee
        {
            OFFSET   0.000000  -0.410000   0.000000
            CHANNELS 3 Xrotation Yrotation Zrotation
            JOINT lAnkle
            {
                OFFSET   0.000000  -0.390000   0.000000
                CHANNELS 3 Xrotation Yrotation Zrotation
                JOINT lToeJoint
                {
                    OFFSET   0.000000  -0.050000   0.130000
                    CHANNELS 3 Xrotation Yrotation Zrotation
                    End Site
                    {
                        OFFSET   0.010000   0.002000   0.060000
                    }
                }
            }
        }
    }
}
MOTION
Frames: 5
Frame Time:   0.008333
 -2.454347   0.954914   5.128388  -1.736315  -2.131836  -1.809199   6.568686   2.523265   0.199276   7.623104   0.177162   2.581465   0.307082  -5.163840   4.578056   2.353440   6.928341  13.735279 -10.894099  -0.685897   5.477102  -0.003967  56.601640   0.003327  14.680981   2.685150 -23.081042   8.227265  -6.471415 -18.274320  22.185324  -1.904783 -25.488541  -0.000006 -29.817040   0.000114  10.753702  -3.966084   9.489785  -1.609684   3.101045  10.042536   3.333387   0.000163   0.001608  26.599665  -3.167335  -6.472068 -40.889985   0.001004   0.000309 -19.989318  -4.486190   7.197412  72.959253  -0.003109  -0.001437 -13.219467  -0.274584  -2.351092  -7.210026  -0.002520  -0.001054
 -2.454555   0.955930   5.130931  -1.778047  -2.712749  -1.637577   6.616465   2.669372   0.197583   7.674719   0.359735   2.453477   0.330469  -5.150223   4.594391   2.319174   7.148884  13.713109 -10.863377  -0.486351   5.417231  -0.004217  55.879605   0.003240  14.713781   2.758292 -22.943637   8.215446  -6.322264 -18.299090  22.293653  -1.840928 -25.599884   0.000012 -29.876848   0.000157  10.739914  -3.949740   9.373838  -1.399791   3.242636   9.849416   3.239041   0.000129   0.001673  27.012445  -2.753322  -6.566948 -41.524275   0.001365   0.000425 -20.618753  -4.727547   6.867658  72.394450   0.000639   0.001433 -13.518668  -0.211554  -2.232549  -7.098768  -0.002540  -0.001541
 -2.454655   0.956680   5.133453  -1.814134  -3.279916  -1.424669   6.662178   2.800840   0.174848   7.723447   0.532162   2.311792   0.353838  -5.137675   4.606785   2.287527   7.350938  13.660750 -10.835883  -0.302962   5.347411  -0.003993  55.195943   0.002975  14.720492   2.767957 -22.778236   8.215913  -6.169502 -18.303871  22.401358  -1.775091 -25.710647   0.000015 -29.937074   0.000191  10.729579  -3.968751   9.238299  -1.211831   3.398396   9.587839   3.187735   0.000090   0.001535  27.563512  -2.303730  -6.601239 -43.418148   0.003797   0.000304 -21.231733  -4.966911   6.479252  71.732970   0.004114   0.004367 -13.803165  -0.153813  -2.120819  -6.991961  -0.002513  -0.001930
 -2.454832   0.957634   5.135866  -1.846584  -3.848140  -1.297066   6.720217   2.932273   0.207634   7.777875   0.703274   2.204402   0.373931  -5.125517   4.622867   2.253377   7.545605  13.617040 -10.813392  -0.129984   5.279858  -0.003895  54.553256   0.002764  14.716373   2.749794 -22.624706   8.214569  -6.028350 -18.330144  22.500859  -1.715598 -25.820158   0.000026 -29.990106   0.000226  10.717291  -3.971508   9.107196  -1.025445   3.550268   9.435176   3.111537   0.000070   0.001521  27.909237  -1.915305  -6.706683 -43.755864   0.003303   0.000355 -21.828886  -5.212409   6.181349  71.047242   0.006863   0.006840 -14.069856  -0.100077  -2.015914  -6.886750  -0.002458  -0.002220
 -2.454995   0.958609   5.138231  -1.883543  -4.408602  -1.172743   6.786027   3.055685   0.229845   7.838540   0.865088   2.104772   0.395340  -5.114152   4.639096   2.222792   7.726930  13.573900 -10.791554   0.031511   5.217386  -0.003751  53.954546   0.002563  14.711406   2.730818 -22.474940   8.216627  -5.893022 -18.350187  22.595815  -1.658183 -25.924378   0.000033 -30.040007   0.000257  10.705008  -3.976802   8.971846  -0.846274   3.703305   9.279477   3.042411   0.000051   0.001476  28.291891  -1.530341  -6.788713 -44.181432   0.003046   0.000441 -22.411467  -5.438817   5.877925  70.387097   0.008723   0.008764 -14.319872  -0.050235  -1.917881  -6.791051  -0.002339  -0.002387
